<svg width="33" height="33" viewBox="0 0 33 33" fill="none" xmlns="http://www.w3.org/2000/svg"><path d="M28.166 4.831C21.72-1.612 11.274-1.61 4.83 4.835c-6.443 6.444-6.441 16.891.004 23.334 6.444 6.443 16.891 6.441 23.334-.003a16.5 16.5 0 00-.003-23.335zm-3.177 18.153l-.003.002v-.005l-.835.83A4.4 4.4 0 0119.998 25a14.62 14.62 0 01-4.246-1.904 19.619 19.619 0 01-3.35-2.7A19.768 19.768 0 019.9 17.36a15.4 15.4 0 01-1.881-3.806 4.4 4.4 0 011.1-4.493l.979-.98a.698.698 0 01.99 0l3.09 3.091a.698.698 0 01.003.988l-.002.002-1.815 1.815a1.48 1.48 0 00-.154 1.925 21.17 21.17 0 002.172 2.536 21.12 21.12 0 002.86 2.404 1.49 1.49 0 001.903-.165l1.755-1.782a.698.698 0 01.988-.003l.002.003 3.096 3.102a.698.698 0 01.003.987z" fill="#fff"/></svg>