<svg width="33" height="34" viewBox="0 0 33 34" fill="none" xmlns="http://www.w3.org/2000/svg"><path d="M16.389.777C7.338.777 0 8.114 0 17.166c0 9.05 7.338 16.388 16.389 16.388 9.05 0 16.388-7.337 16.388-16.389 0-9.05-7.338-16.388-16.389-16.388zm8.313 18.16c.763.747 1.572 1.45 2.257 2.272.304.364.59.741.808 1.165.312.604.03 1.266-.51 1.302l-3.358-.001c-.867.072-1.557-.278-2.138-.87-.465-.473-.896-.978-1.343-1.466a3.098 3.098 0 00-.605-.538c-.457-.298-.855-.207-1.117.271-.268.487-.329 1.026-.354 1.568-.037.791-.275.998-1.07 1.035-1.697.08-3.307-.178-4.804-1.034-1.32-.754-2.343-1.82-3.233-3.026-1.735-2.35-3.063-4.931-4.256-7.586-.269-.598-.072-.918.587-.93a93.575 93.575 0 013.288-.001c.446.007.74.262.912.683.592 1.457 1.318 2.843 2.228 4.128.242.343.49.684.842.926.39.267.686.179.869-.256.117-.276.168-.57.193-.866.088-1.013.098-2.026-.053-3.035-.094-.631-.449-1.04-1.078-1.159-.32-.06-.274-.179-.118-.362.27-.317.524-.512 1.03-.512l3.794-.001c.598.117.732.386.813.988l.004 4.215c-.007.233.117.924.535 1.077.335.11.557-.159.757-.37.91-.966 1.558-2.106 2.139-3.285.256-.52.477-1.058.691-1.597.16-.399.408-.595.858-.588l3.653.004c.108 0 .217 0 .324.02.615.105.784.37.593.97-.3.944-.882 1.73-1.451 2.518-.61.843-1.261 1.657-1.865 2.505-.556.774-.512 1.164.178 1.837z" fill="#fff"/></svg>