<svg width="33" height="33" viewBox="0 0 33 33" fill="none" xmlns="http://www.w3.org/2000/svg">
<path d="M28.1655 4.83097C21.7209 -1.61169 11.2736 -1.61014 4.83098 4.83452C-1.61169 11.2792 -1.61014 21.7264 4.83452 28.169C11.2792 34.6117 21.7264 34.6101 28.169 28.1655C31.2632 25.0704 33.001 20.8729 33 16.4965C32.9991 12.1207 31.2601 7.92459 28.1655 4.83097ZM24.9887 22.9843C24.988 22.985 24.9873 22.9858 24.9865 22.9865V22.981L24.1505 23.8115C23.0693 24.9064 21.4946 25.3568 19.9979 24.9995C18.4901 24.5959 17.0566 23.9534 15.752 23.0965C14.5399 22.3218 13.4166 21.4163 12.4025 20.396C11.4694 19.4697 10.6311 18.4527 9.89995 17.36C9.10022 16.1842 8.46723 14.9034 8.01895 13.554C7.50507 11.9687 7.93091 10.2292 9.11897 9.06051L10.098 8.08153C10.3701 7.80812 10.8124 7.80716 11.0858 8.07934C11.0865 8.08005 11.0872 8.08076 11.088 8.08153L14.1789 11.1725C14.4523 11.4447 14.4533 11.887 14.1811 12.1603C14.1804 12.161 14.1797 12.1617 14.1789 12.1625L12.3639 13.9775C11.8431 14.4926 11.7777 15.3112 12.21 15.9025C12.8664 16.8034 13.5929 17.6512 14.3825 18.438C15.2628 19.3222 16.2199 20.1265 17.2424 20.8416C17.8333 21.2537 18.6343 21.1842 19.1454 20.6766L20.8999 18.8946C21.1721 18.6212 21.6144 18.6202 21.8877 18.8924C21.8884 18.8931 21.8891 18.8938 21.8899 18.8946L24.9864 21.9966C25.2599 22.2687 25.2609 22.7109 24.9887 22.9843Z" fill="white"/>
</svg>
